<svg xmlns="http://www.w3.org/2000/svg" viewBox="0 0 583.4 74.38"><path d="M292.09,74.38a34.74,34.74,0,0,0,7.88-.91L580.46,39.68h0L300,5.89A34.74,34.74,0,0,0,292.09,5c-.62,0-1.24,0-1.86,0S289,5,288.37,5a34.74,34.74,0,0,0-7.88.91L0,39.68H0L280.49,73.47a34.68,34.68,0,0,0,7.88.91c.62,0,1.24,0,1.86,0S291.47,74.38,292.09,74.38Zm-18.4-34.7a16.54,16.54,0,1,1,16.54,16.73A16.75,16.75,0,0,1,273.69,39.68Z" style="fill:#494949"/><path d="M293.61,51.45A16.75,16.75,0,0,1,276.86,34.7H3.17L283.66,68.49A34.69,34.69,0,0,0,326.24,34.7H310.35A16.74,16.74,0,0,1,293.61,51.45Z" style="fill:#98ceec"/><path d="M291.54,0a34.74,34.74,0,0,0-7.88.91L3.17,34.7H276.86a16.75,16.75,0,0,1,33.49,0h15.89A34.71,34.71,0,0,0,291.54,0Z" style="fill:#6fb9ec"/><path d="M293,18A16.73,16.73,0,0,1,309.71,34.7H583.4L302.92.91A34.69,34.69,0,0,0,260.34,34.7h15.88A16.74,16.74,0,0,1,293,18Z" style="fill:#cfd1d2"/><path d="M295,69.4a34.59,34.59,0,0,0,7.87-.91L583.4,34.7H309.71a16.75,16.75,0,1,1-33.49,0H260.34A34.69,34.69,0,0,0,295,69.4Z" style="fill:#e5e5e6"/><path d="M312.47,35.2A19.44,19.44,0,1,1,293,15.76,19.44,19.44,0,0,1,312.47,35.2Z" style="fill:#cfd1d2"/><path d="M311.37,35.2A18.34,18.34,0,1,1,293,16.86,18.34,18.34,0,0,1,311.37,35.2Z" style="fill:#919395"/><path d="M303.4,35.2A10.37,10.37,0,1,1,293,24.83,10.36,10.36,0,0,1,303.4,35.2Z" style="fill:#cfd1d2"/><path d="M302,35.2a9,9,0,1,1-9-9A9,9,0,0,1,302,35.2Z" style="fill:#a5a6a9"/><path d="M300.61,35.2A7.58,7.58,0,1,1,293,27.62,7.58,7.58,0,0,1,300.61,35.2Z" style="fill:#3f3f3f"/><path d="M298.35,35.2A5.32,5.32,0,1,1,293,29.88,5.32,5.32,0,0,1,298.35,35.2Z" style="fill:#fff"/></svg>