<svg xmlns="http://www.w3.org/2000/svg" viewBox="0 0 936.29 950"><path d="M459,38.37V0h6.36l14.47,19.41A105.88,105.88,0,0,1,488,31.88l.13-.06a146.59,146.59,0,0,1-.67-15.77V0h5.5V38.37H487L472.68,18.9a116.36,116.36,0,0,1-8.44-12.81l-.21.06c.34,4.84.47,9.45.47,15.82v16.4Z" style="fill:#fff"/><path d="M934.28,470H916.73v13.84h19.56V488H910.9V449.64h24.38v4.16H916.73v12.12h17.55Z" style="fill:#fff"/><path d="M463.73,943.4a23.57,23.57,0,0,0,10.45,2.5c6,0,9.45-2.67,9.45-6.55,0-3.58-2.41-5.63-8.51-7.62-7.37-2.22-11.92-5.47-11.92-10.88,0-6,5.82-10.41,14.6-10.41a23.48,23.48,0,0,1,10,1.88l-1.61,4a20.37,20.37,0,0,0-8.57-1.82c-6.16,0-8.51,3.13-8.51,5.74,0,3.59,2.75,5.36,9,7.41,7.63,2.5,11.52,5.63,11.52,11.27,0,5.92-5.16,11-15.81,11-4.35,0-9.11-1.08-11.52-2.45Z" style="fill:#fff"/><path d="M11.45,487.53,0,449.16H6.16l5.36,19.41c1.34,4.79,2.55,9.57,3.35,13.27H15a135.11,135.11,0,0,1,3.69-13.32l6-19.36h6.09l5.49,19.47a129,129,0,0,1,3.15,13.15h.14c.94-4.21,2.21-8.48,3.61-13.26l6-19.36h6l-12.8,38.37H36.24l-5.7-20A101.08,101.08,0,0,1,27.6,455h-.14A105.1,105.1,0,0,1,24,467.55l-6.43,20Z" style="fill:#fff"/><path d="M742.1,187.79l13.53-13.47,2.24,2.24-1.77,11.92a52.55,52.55,0,0,1-1.55,7.24l.07,0A70.27,70.27,0,0,1,760,190l5.66-5.63,1.93,1.94L754,199.75l-2.07-2.08,1.83-11.9a59.55,59.55,0,0,1,1.56-7.47l-.09-.05c-1.59,1.82-3.17,3.48-5.42,5.72L744,189.73Z" style="fill:#fff"/><path d="M772.13,205.27,766,199.08l-4.88,4.85,6.87,6.91-1.47,1.45-8.91-8.95,13.53-13.47,8.56,8.6-1.46,1.46-6.52-6.55-4.28,4.26,6.17,6.19Z" style="fill:#fff"/><path d="M182.75,210.5,169.28,197l2.24-2.24,11.92,1.77a52.87,52.87,0,0,1,7.24,1.55l0-.07a71.86,71.86,0,0,1-5.78-5.32L179.3,187l1.93-1.93,13.48,13.54-2.08,2.07-11.9-1.83a57.82,57.82,0,0,1-7.47-1.56l0,.09c1.81,1.59,3.48,3.17,5.72,5.42l5.76,5.78Z" style="fill:#fff"/><path d="M200.89,192.44l-17.51-9.51,2.18-2.17,8.7,5c2.15,1.21,4.26,2.48,5.84,3.5l.05,0a66.92,66.92,0,0,1-3.38-6l-4.67-8.94,2.15-2.15L203,177a64.66,64.66,0,0,1,5.73,3.54l0-.05c-1.14-1.82-2.19-3.77-3.38-5.95l-4.69-8.92,2.1-2.1,9,18-2.15,2.14-9-5a48,48,0,0,1-5.44-3.38l-.05,0A51.53,51.53,0,0,1,198.3,181l4.75,9.31Z" style="fill:#fff"/><path d="M215.07,756.1a11.6,11.6,0,0,0-2.78-4.56c-2.1-2.11-4.27-2.4-5.63-1s-1.14,2.83.3,5.68c1.8,3.38,2.26,6.13.35,8-2.11,2.1-5.72,1.6-8.8-1.5a11.72,11.72,0,0,1-2.85-4.18l2-.85a10.41,10.41,0,0,0,2.37,3.67c2.17,2.17,4.09,1.9,5,1,1.26-1.26.92-2.85-.54-5.77-1.8-3.57-2.06-6-.08-8s5.71-2.06,9.45,1.7a13.31,13.31,0,0,1,3.19,4.93Z" style="fill:#fff"/><path d="M202.73,739.45,193.22,757l-2.16-2.18,5-8.7c1.22-2.16,2.48-4.26,3.51-5.84l-.05,0c-1.61,1.08-3.71,2.18-6,3.38l-9,4.66-2.14-2.15,4.94-8.77a65.58,65.58,0,0,1,3.53-5.73l-.05-.05c-1.81,1.15-3.76,2.2-5.95,3.39L176,739.62l-2.09-2.11,18-9,2.14,2.15-5.05,9a49.51,49.51,0,0,1-3.38,5.44l.05.05a50.61,50.61,0,0,1,5.64-3.17l9.3-4.75Z" style="fill:#fff"/><path d="M762.83,732.79a11.71,11.71,0,0,0-4.57,2.79c-2.1,2.09-2.39,4.26-1,5.62s2.82,1.15,5.68-.29c3.37-1.81,6.12-2.26,8-.36,2.1,2.11,1.6,5.72-1.5,8.81a11.66,11.66,0,0,1-4.18,2.84l-.85-2a10.27,10.27,0,0,0,3.67-2.37c2.17-2.16,1.9-4.09,1-5-1.26-1.27-2.85-.93-5.77.54-3.57,1.8-6,2.06-8,.07s-2.06-5.71,1.7-9.45a13.22,13.22,0,0,1,4.93-3.18Z" style="fill:#fff"/><path d="M746.84,757.1l6.19-6.17-4.85-4.88-6.91,6.87-1.45-1.46,8.95-8.92,13.47,13.54-8.6,8.56-1.46-1.47,6.55-6.51-4.26-4.28-6.19,6.16Z" style="fill:#fff"/><path d="M477.14,795.26a324.54,324.54,0,1,1,229.48-95A322.43,322.43,0,0,1,477.14,795.26Zm0-638.11A313.58,313.58,0,1,0,698.87,249,311.55,311.55,0,0,0,477.14,157.15Z" style="fill:#fff"/><polygon points="794.79 458.39 897.96 470.72 794.79 483.06 794.79 458.39" style="fill:#fff"/><polygon points="159.5 483.06 56.32 470.72 159.5 458.39 159.5 483.06" style="fill:#fff"/><polygon points="489.47 788.37 477.14 891.54 464.81 788.37 489.47 788.37" style="fill:#fff"/><polygon points="464.81 153.08 477.14 49.91 489.47 153.08 464.81 153.08" style="fill:#fff"/><polygon points="243.81 254.84 210.16 203.75 261.25 237.39 243.81 254.84" style="fill:#fff"/><polygon points="710.47 686.61 744.12 737.7 693.03 704.05 710.47 686.61" style="fill:#fff"/><polygon points="693.03 237.4 744.12 203.74 710.47 254.84 693.03 237.4" style="fill:#fff"/><polygon points="261.25 704.05 210.16 737.7 243.81 686.61 261.25 704.05" style="fill:#fff"/><path d="M477.14,731.63c-143.86,0-260.9-117-260.9-260.91s117-260.9,260.9-260.9,260.91,117,260.91,260.9A260.91,260.91,0,0,1,477.14,731.63Zm0-516.88c-141.15,0-256,114.83-256,256s114.83,256,256,256,256-114.83,256-256S618.29,214.75,477.14,214.75Z" style="fill:#fff"/><path d="M477.14,717.07c-135.84,0-246.35-110.51-246.35-246.35S341.3,224.37,477.14,224.37,723.49,334.89,723.49,470.72,613,717.07,477.14,717.07Zm0-483c-130.47,0-236.62,106.14-236.62,236.61S346.67,707.34,477.14,707.34,713.76,601.2,713.76,470.72,607.61,234.11,477.14,234.11Z" style="fill:#fff"/><path d="M477.14,697.46c-125,0-226.73-101.72-226.73-226.74S352.12,244,477.14,244,703.87,345.7,703.87,470.72,602.16,697.46,477.14,697.46Zm0-449.59c-122.88,0-222.85,100-222.85,222.85s100,222.86,222.85,222.86S700,593.6,700,470.72,600,247.87,477.14,247.87Z" style="fill:#fff"/><path d="M477.14,652.06c-100,0-181.33-81.35-181.33-181.34s81.34-181.33,181.33-181.33,181.33,81.35,181.33,181.33S577.13,652.06,477.14,652.06Zm0-359.57c-98.28,0-178.23,80-178.23,178.23S378.86,649,477.14,649s178.23-80,178.23-178.24S575.42,292.49,477.14,292.49Z" style="fill:#fff"/><rect x="633.65" y="303.93" width="16.69" height="3.88" transform="translate(-28.24 543.56) rotate(-45)" style="fill:#fff"/><rect x="303.94" y="633.64" width="16.69" height="3.88" transform="translate(-357.96 406.99) rotate(-45)" style="fill:#fff"/><rect x="640.05" y="627.23" width="3.88" height="16.69" transform="translate(-261.39 640.12) rotate(-45)" style="fill:#fff"/><rect x="310.35" y="297.52" width="3.88" height="16.69" transform="translate(-124.82 310.43) rotate(-45)" style="fill:#fff"/></svg>